<?xml version="1.0" encoding="UTF-8" standalone="no"?><svg xmlns="http://www.w3.org/2000/svg" xmlns:xlink="http://www.w3.org/1999/xlink" contentScriptType="application/ecmascript" contentStyleType="text/css" height="764px" preserveAspectRatio="none" style="width:769px;height:764px;" version="1.1" viewBox="0 0 769 764" width="769px" zoomAndPan="magnify"><defs><filter height="300%" id="f113msn2v9f72c" width="300%" x="-1" y="-1"><feGaussianBlur result="blurOut" stdDeviation="2.0"/><feColorMatrix in="blurOut" result="blurOut2" type="matrix" values="0 0 0 0 0 0 0 0 0 0 0 0 0 0 0 0 0 0 .4 0"/><feOffset dx="4.0" dy="4.0" in="blurOut2" result="blurOut3"/><feBlend in="SourceGraphic" in2="blurOut3" mode="normal"/></filter></defs><g><line style="stroke: #A80036; stroke-width: 1.0; stroke-dasharray: 5.0,5.0;" x1="97" x2="97" y1="38.4883" y2="724.0098"/><line style="stroke: #A80036; stroke-width: 1.0; stroke-dasharray: 5.0,5.0;" x1="305" x2="305" y1="38.4883" y2="724.0098"/><line style="stroke: #A80036; stroke-width: 1.0; stroke-dasharray: 5.0,5.0;" x1="643" x2="643" y1="38.4883" y2="724.0098"/><rect fill="#FEFECE" filter="url(#f113msn2v9f72c)" height="30.4883" style="stroke: #A80036; stroke-width: 1.5;" width="42" x="74" y="3"/><text fill="#000000" font-family="sans-serif" font-size="14" lengthAdjust="spacingAndGlyphs" textLength="28" x="81" y="23.5352">中国</text><rect fill="#FEFECE" filter="url(#f113msn2v9f72c)" height="30.4883" style="stroke: #A80036; stroke-width: 1.5;" width="42" x="74" y="723.0098"/><text fill="#000000" font-family="sans-serif" font-size="14" lengthAdjust="spacingAndGlyphs" textLength="28" x="81" y="743.5449">中国</text><rect fill="#FEFECE" filter="url(#f113msn2v9f72c)" height="30.4883" style="stroke: #A80036; stroke-width: 1.5;" width="42" x="282" y="3"/><text fill="#000000" font-family="sans-serif" font-size="14" lengthAdjust="spacingAndGlyphs" textLength="28" x="289" y="23.5352">朝鮮</text><rect fill="#FEFECE" filter="url(#f113msn2v9f72c)" height="30.4883" style="stroke: #A80036; stroke-width: 1.5;" width="42" x="282" y="723.0098"/><text fill="#000000" font-family="sans-serif" font-size="14" lengthAdjust="spacingAndGlyphs" textLength="28" x="289" y="743.5449">朝鮮</text><rect fill="#FEFECE" filter="url(#f113msn2v9f72c)" height="30.4883" style="stroke: #A80036; stroke-width: 1.5;" width="42" x="620" y="3"/><text fill="#000000" font-family="sans-serif" font-size="14" lengthAdjust="spacingAndGlyphs" textLength="28" x="627" y="23.5352">日本</text><rect fill="#FEFECE" filter="url(#f113msn2v9f72c)" height="30.4883" style="stroke: #A80036; stroke-width: 1.5;" width="42" x="620" y="723.0098"/><text fill="#000000" font-family="sans-serif" font-size="14" lengthAdjust="spacingAndGlyphs" textLength="28" x="627" y="743.5449">日本</text><polygon fill="#FBFB77" filter="url(#f113msn2v9f72c)" points="18,53.4883,176,53.4883,186,64.4883,176,76.4883,18,76.4883,8,64.4883,18,53.4883" style="stroke: #A80036; stroke-width: 1.0;"/><text fill="#000000" font-family="sans-serif" font-size="13" lengthAdjust="spacingAndGlyphs" textLength="154" x="20" y="70.0566">589年　隋が南北朝を統一</text><polygon fill="#A80036" points="108,99.1094,98,103.1094,108,107.1094,104,103.1094" style="stroke: #A80036; stroke-width: 1.0;"/><line style="stroke: #A80036; stroke-width: 1.0;" x1="102" x2="642" y1="103.1094" y2="103.1094"/><text fill="#000000" font-family="sans-serif" font-size="13" lengthAdjust="spacingAndGlyphs" textLength="171" x="114" y="98.3672">607年 小野妹子ら遣隋使派遣</text><polygon fill="#A80036" points="631,128.4199,641,132.4199,631,136.4199,635,132.4199" style="stroke: #A80036; stroke-width: 1.0;"/><line style="stroke: #A80036; stroke-width: 1.0;" x1="97" x2="637" y1="132.4199" y2="132.4199"/><text fill="#000000" font-family="sans-serif" font-size="13" lengthAdjust="spacingAndGlyphs" textLength="301" x="104" y="127.6777">608年 小野妹子の帰国に隋の使者として裴世清同行</text><polygon fill="#A80036" points="293,157.7305,303,161.7305,293,165.7305,297,161.7305" style="stroke: #A80036; stroke-width: 1.0;"/><line style="stroke: #A80036; stroke-width: 1.0;" x1="97" x2="299" y1="161.7305" y2="161.7305"/><text fill="#000000" font-family="sans-serif" font-size="13" lengthAdjust="spacingAndGlyphs" textLength="151" x="104" y="156.9883">611~613年 高句麗大遠征</text><polygon fill="#FBFB77" filter="url(#f113msn2v9f72c)" points="31,174.7305,163,174.7305,173,185.7305,163,197.7305,31,197.7305,21,185.7305,31,174.7305" style="stroke: #A80036; stroke-width: 1.0;"/><text fill="#000000" font-family="sans-serif" font-size="13" lengthAdjust="spacingAndGlyphs" textLength="128" x="33" y="191.2988">618年　唐、中国統一</text><polygon fill="#A80036" points="108,220.3516,98,224.3516,108,228.3516,104,224.3516" style="stroke: #A80036; stroke-width: 1.0;"/><line style="stroke: #A80036; stroke-width: 1.0;" x1="102" x2="642" y1="224.3516" y2="224.3516"/><text fill="#000000" font-family="sans-serif" font-size="13" lengthAdjust="spacingAndGlyphs" textLength="145" x="114" y="219.6094">630年 最初の遣唐使派遣</text><polygon fill="#A80036" points="631,249.6621,641,253.6621,631,257.6621,635,253.6621" style="stroke: #A80036; stroke-width: 1.0;"/><line style="stroke: #A80036; stroke-width: 1.0;" x1="97" x2="637" y1="253.6621" y2="253.6621"/><text fill="#000000" font-family="sans-serif" font-size="13" lengthAdjust="spacingAndGlyphs" textLength="156" x="104" y="248.9199">遣隋留学生や学問僧ら帰国</text><line style="stroke: #A80036; stroke-width: 1.0;" x1="305" x2="347" y1="282.9727" y2="282.9727"/><line style="stroke: #A80036; stroke-width: 1.0;" x1="347" x2="347" y1="282.9727" y2="295.9727"/><line style="stroke: #A80036; stroke-width: 1.0;" x1="306" x2="347" y1="295.9727" y2="295.9727"/><polygon fill="#A80036" points="316,291.9727,306,295.9727,316,299.9727,312,295.9727" style="stroke: #A80036; stroke-width: 1.0;"/><text fill="#000000" font-family="sans-serif" font-size="13" lengthAdjust="spacingAndGlyphs" textLength="145" x="312" y="278.2305">643年 百済、新羅へ侵攻</text><polygon fill="#A80036" points="108,321.2832,98,325.2832,108,329.2832,104,325.2832" style="stroke: #A80036; stroke-width: 1.0;"/><line style="stroke: #A80036; stroke-width: 1.0;" x1="102" x2="304" y1="325.2832" y2="325.2832"/><text fill="#000000" font-family="sans-serif" font-size="13" lengthAdjust="spacingAndGlyphs" textLength="158" x="114" y="320.541">643年 新羅、唐へ救援要請</text><polygon fill="#FBFB77" filter="url(#f113msn2v9f72c)" points="536,338.2832,750,338.2832,760,349.2832,750,361.2832,536,361.2832,526,349.2832,536,338.2832" style="stroke: #A80036; stroke-width: 1.0;"/><text fill="#000000" font-family="sans-serif" font-size="13" lengthAdjust="spacingAndGlyphs" textLength="210" x="538" y="354.8516">643年 蘇我入鹿ら山背大兄王を討滅</text><polygon fill="#A80036" points="293,383.9043,303,387.9043,293,391.9043,297,387.9043" style="stroke: #A80036; stroke-width: 1.0;"/><line style="stroke: #A80036; stroke-width: 1.0;" x1="97" x2="299" y1="387.9043" y2="387.9043"/><text fill="#000000" font-family="sans-serif" font-size="13" lengthAdjust="spacingAndGlyphs" textLength="151" x="104" y="383.1621">644~648年 高句麗へ侵攻</text><polygon fill="#FBFB77" filter="url(#f113msn2v9f72c)" points="588,400.9043,698,400.9043,708,411.9043,698,423.9043,588,423.9043,578,411.9043,588,400.9043" style="stroke: #A80036; stroke-width: 1.0;"/><text fill="#000000" font-family="sans-serif" font-size="13" lengthAdjust="spacingAndGlyphs" textLength="106" x="590" y="417.4727">645年 大化の改新</text><line style="stroke: #A80036; stroke-width: 1.0;" x1="305" x2="347" y1="450.5254" y2="450.5254"/><line style="stroke: #A80036; stroke-width: 1.0;" x1="347" x2="347" y1="450.5254" y2="463.5254"/><line style="stroke: #A80036; stroke-width: 1.0;" x1="306" x2="347" y1="463.5254" y2="463.5254"/><polygon fill="#A80036" points="316,459.5254,306,463.5254,316,467.5254,312,463.5254" style="stroke: #A80036; stroke-width: 1.0;"/><text fill="#000000" font-family="sans-serif" font-size="13" lengthAdjust="spacingAndGlyphs" textLength="158" x="312" y="445.7832">655年 高句麗、新羅へ侵攻</text><polygon fill="#A80036" points="293,488.8359,303,492.8359,293,496.8359,297,492.8359" style="stroke: #A80036; stroke-width: 1.0;"/><line style="stroke: #A80036; stroke-width: 1.0;" x1="97" x2="299" y1="492.8359" y2="492.8359"/><text fill="#000000" font-family="sans-serif" font-size="13" lengthAdjust="spacingAndGlyphs" textLength="184" x="104" y="488.0938">660年 唐・新羅連合、百済討滅</text><polygon fill="#FBFB77" filter="url(#f113msn2v9f72c)" points="264,505.8359,346,505.8359,356,516.8359,346,528.8359,264,528.8359,254,516.8359,264,505.8359" style="stroke: #A80036; stroke-width: 1.0;"/><text fill="#000000" font-family="sans-serif" font-size="13" lengthAdjust="spacingAndGlyphs" textLength="78" x="266" y="522.4043">百済復興運動</text><polygon fill="#A80036" points="631,551.457,641,555.457,631,559.457,635,555.457" style="stroke: #A80036; stroke-width: 1.0;"/><line style="stroke: #A80036; stroke-width: 1.0;" x1="305" x2="637" y1="555.457" y2="555.457"/><text fill="#000000" font-family="sans-serif" font-size="13" lengthAdjust="spacingAndGlyphs" textLength="143" x="312" y="550.7148">鬼室福信による援軍要請</text><polygon fill="#A80036" points="316,580.7676,306,584.7676,316,588.7676,312,584.7676" style="stroke: #A80036; stroke-width: 1.0;"/><line style="stroke: #A80036; stroke-width: 1.0; stroke-dasharray: 2.0,2.0;" x1="310" x2="642" y1="584.7676" y2="584.7676"/><text fill="#000000" font-family="sans-serif" font-size="13" lengthAdjust="spacingAndGlyphs" textLength="314" x="322" y="580.0254">661年 斉明天皇、救援のため出兵（急死のため中断）</text><polygon fill="#A80036" points="316,610.0781,306,614.0781,316,618.0781,312,614.0781" style="stroke: #A80036; stroke-width: 1.0;"/><line style="stroke: #A80036; stroke-width: 1.0;" x1="310" x2="642" y1="614.0781" y2="614.0781"/><text fill="#000000" font-family="sans-serif" font-size="13" lengthAdjust="spacingAndGlyphs" textLength="223" x="322" y="609.3359">663年 援軍送るが白村江の戦いで大敗</text><polygon fill="#A80036" points="293,639.3887,303,643.3887,293,647.3887,297,643.3887" style="stroke: #A80036; stroke-width: 1.0;"/><line style="stroke: #A80036; stroke-width: 1.0;" x1="97" x2="299" y1="643.3887" y2="643.3887"/><text fill="#000000" font-family="sans-serif" font-size="13" lengthAdjust="spacingAndGlyphs" textLength="106" x="104" y="638.6465">668年 高句麗討滅</text><polygon fill="#FBFB77" filter="url(#f113msn2v9f72c)" points="257,656.3887,352,656.3887,362,667.3887,352,679.3887,257,679.3887,247,667.3887,257,656.3887" style="stroke: #A80036; stroke-width: 1.0;"/><text fill="#000000" font-family="sans-serif" font-size="13" lengthAdjust="spacingAndGlyphs" textLength="91" x="259" y="672.957">新羅が朝鮮統一</text><polygon fill="#A80036" points="316,702.0098,306,706.0098,316,710.0098,312,706.0098" style="stroke: #A80036; stroke-width: 1.0;"/><line style="stroke: #A80036; stroke-width: 1.0;" x1="310" x2="642" y1="706.0098" y2="706.0098"/><text fill="#000000" font-family="sans-serif" font-size="13" lengthAdjust="spacingAndGlyphs" textLength="132" x="322" y="701.2676">668年 遣新羅使、派遣</text><!--
@startuml
participant 中国
participant 朝鮮
participant 日本
hnote over 中国 : 589年　隋が南北朝を統一
日本 -> 中国:607年 小野妹子ら遣隋使派遣
中国 -> 日本:608年 小野妹子の帰国に隋の使者として裴世清同行
中国 -> 朝鮮:611~613年 高句麗大遠征
hnote over 中国 : 618年　唐、中国統一
日本 -> 中国:630年 最初の遣唐使派遣
中国 -> 日本:遣隋留学生や学問僧ら帰国
朝鮮 -> 朝鮮:643年 百済、新羅へ侵攻
朝鮮 -> 中国:643年 新羅、唐へ救援要請
hnote over 日本 : 643年 蘇我入鹿ら山背大兄王を討滅
中国 -> 朝鮮:644~648年 高句麗へ侵攻
hnote over 日本 : 645年 大化の改新
朝鮮 -> 朝鮮:655年 高句麗、新羅へ侵攻
中国 -> 朝鮮:660年 唐・新羅連合、百済討滅
hnote over 朝鮮:百済復興運動
朝鮮 -> 日本:鬼室福信による援軍要請
日本 - -> 朝鮮:661年 斉明天皇、救援のため出兵（急死のため中断）
日本 -> 朝鮮:663年 援軍送るが白村江の戦いで大敗
中国 -> 朝鮮:668年 高句麗討滅
hnote over 朝鮮:新羅が朝鮮統一
日本 -> 朝鮮:668年 遣新羅使、派遣
@enduml

PlantUML version 1.2018.12(Sun Oct 21 19:15:15 JST 2018)
(GPL source distribution)
Java Runtime: Java(TM) SE Runtime Environment
JVM: Java HotSpot(TM) 64-Bit Server VM
Java Version: 1.8.0_191-b12
Operating System: Mac OS X
OS Version: 10.10.5
Default Encoding: UTF-8
Language: ja
Country: JP
--></g></svg>