<?xml version="1.0" encoding="UTF-8" standalone="no"?><svg xmlns="http://www.w3.org/2000/svg" xmlns:xlink="http://www.w3.org/1999/xlink" contentScriptType="application/ecmascript" contentStyleType="text/css" height="146px" preserveAspectRatio="none" style="width:402px;height:146px;" version="1.1" viewBox="0 0 402 146" width="402px" zoomAndPan="magnify"><defs><filter height="300%" id="f18mpci6l0t3cu" width="300%" x="-1" y="-1"><feGaussianBlur result="blurOut" stdDeviation="2.0"/><feColorMatrix in="blurOut" result="blurOut2" type="matrix" values="0 0 0 0 0 0 0 0 0 0 0 0 0 0 0 0 0 0 .4 0"/><feOffset dx="4.0" dy="4.0" in="blurOut2" result="blurOut3"/><feBlend in="SourceGraphic" in2="blurOut3" mode="normal"/></filter></defs><g><polygon fill="#F8F8F8" filter="url(#f18mpci6l0t3cu)" points="184.4482,22.8451,183.4559,25.0282,179.6685,26.6893,175.3228,28.3441,171.7353,30.2662,164.9667,31.3621,158.7832,32.5397,151.5256,33.2996,143.5293,33.6636,136.5848,34.0368,127.1658,33.4497,121.1553,33.3845,113.3817,32.4611,105.9022,31.1868,100.6613,30.0503,95.3956,28.4582,91.4559,26.7667,88.1945,24.8242,86.2948,22.8352,85.2242,20.698,85.7227,18.6507,87.5313,16.6797,91.0763,14.9557,94.8719,13.1579,99.6176,11.5366,107.4295,10.7117,112.2211,9.1726,120.7132,8.7333,127.1921,7.9752,136.3247,8.1703,143.5297,8.1824,150.0354,8.3762,158.2829,9.4227,164.7243,10.4274,170.3419,11.6617,175.3008,13.1742,179.9297,15.0446,182.5267,16.8145,185.4848,19.0785,184.9614,20.8017" style="stroke: #383838; stroke-width: 1.5;"/><text fill="#000000" font-family="APJapanesefont" font-size="14" lengthAdjust="spacingAndGlyphs" textLength="66" x="102.669" y="24.3995">西ヨーロッパ</text><polygon fill="#F8F8F8" filter="url(#f18mpci6l0t3cu)" points="245.1142,124.3451,244.4327,126.5282,241.8315,128.1893,238.8469,129.8441,236.383,131.7662,231.7343,132.8621,227.4875,134.0397,222.503,134.7996,217.0111,135.1636,212.2416,135.5368,205.7727,134.9497,201.6446,134.8845,196.3058,133.9611,191.1688,132.6868,187.5694,131.5503,183.9529,129.9582,181.2471,128.2667,179.0072,126.3242,177.7025,124.3352,176.9672,122.198,177.3095,120.1507,178.5517,118.1797,180.9864,116.4557,183.5932,114.6579,186.8526,113.0366,192.2178,112.2117,195.5086,110.6726,201.341,110.2333,205.7907,109.4752,212.063,109.6703,217.0114,109.6824,221.4795,109.8762,227.1439,110.9227,231.5678,111.9274,235.426,113.1617,238.8318,114.6742,242.0109,116.5446,243.7945,118.3145,245.8261,120.5785,245.4667,122.3017" style="stroke: #383838; stroke-width: 1.5;"/><text fill="#000000" font-family="APJapanesefont" font-size="14" lengthAdjust="spacingAndGlyphs" textLength="44" x="189.6127" y="125.8995">アフリカ</text><polygon fill="#F8F8F8" filter="url(#f18mpci6l0t3cu)" points="114.3454,124.3434,113.2533,126.5997,109.0851,128.3166,104.3025,130.027,100.3544,132.0136,92.9054,133.1463,86.1002,134.3634,78.113,135.1488,69.3128,135.525,61.6701,135.9108,51.3043,135.304,44.6895,135.2365,36.1344,134.2821,27.903,132.9651,22.1353,131.7905,16.3401,130.1448,12.0044,128.3966,8.4151,126.389,6.3244,124.3331,5.1463,122.1242,5.6948,120.0082,7.6852,117.971,11.5867,116.1891,15.7638,114.331,20.9866,112.6553,29.5839,111.8027,34.8571,110.2119,44.203,109.758,51.3332,108.9744,61.3839,109.176,69.3133,109.1885,76.473,109.3889,85.5496,110.4705,92.6386,111.5088,98.8209,112.7846,104.2784,114.3479,109.3726,116.281,112.2307,118.1104,115.4861,120.4503,114.9102,122.2314" style="stroke: #383838; stroke-width: 1.5;"/><text fill="#000000" font-family="APJapanesefont" font-size="14" lengthAdjust="spacingAndGlyphs" textLength="76" x="22.6624" y="125.8325">ラテンアメリカ</text><polygon fill="#F8F8F8" filter="url(#f18mpci6l0t3cu)" points="390.4482,22.8451,389.4559,25.0282,385.6685,26.6893,381.3228,28.3441,377.7353,30.2662,370.9667,31.3621,364.7832,32.5397,357.5256,33.2996,349.5293,33.6636,342.5848,34.0368,333.1658,33.4497,327.1553,33.3845,319.3817,32.4611,311.9022,31.1868,306.6613,30.0503,301.3956,28.4582,297.4559,26.7667,294.1945,24.8242,292.2948,22.8352,291.2242,20.698,291.7227,18.6507,293.5313,16.6797,297.0763,14.9557,300.8719,13.1579,305.6176,11.5366,313.4295,10.7117,318.2211,9.1726,326.7132,8.7333,333.1921,7.9752,342.3247,8.1703,349.5297,8.1824,356.0354,8.3762,364.2829,9.4227,370.7243,10.4274,376.3419,11.6617,381.3008,13.1742,385.9297,15.0446,388.5267,16.8145,391.4848,19.0785,390.9614,20.8017" style="stroke: #383838; stroke-width: 1.5;"/><text fill="#000000" font-family="APJapanesefont" font-size="14" lengthAdjust="spacingAndGlyphs" textLength="66" x="308.669" y="24.3995">東ヨーロッパ</text><!--link 西ヨーロッパ to アフリカ--><path d="M145.1255,33.855 L145.3498,34.023 L150.6565,41.5013 L157.2782,49.9643 L163.4717,58.1066 L168.2569,65.1945 L174.9086,73.6799 L180.5096,81.3786 L186.5287,89.3903 L192.8384,97.6197 L198.8844,105.6516 " fill="none" style="stroke: #383838; stroke-width: 1.0;"/><polygon fill="#383838" points="201.9527,109.7493,202.021,109.7649,201.3795,107.7982,201.1385,105.923,200.767,104.0179,199.9668,102.015,199.7601,100.1476,199.7345,100.1439,199.4585,101.2473,199.3118,102.3692,199.255,103.504,198.8885,104.5943,198.9558,105.747,198.982,105.9297,197.806,105.3782,196.7067,105.36,195.6166,105.4069,194.4722,105.0752,193.3564,104.9427,193.3675,104.9625,195.0705,105.8947,196.824,106.9173,198.5531,107.8962,200.3287,108.9584,201.9527,109.7493" style="stroke: #383838; stroke-width: 1.0;"/><text fill="#000000" font-family="APJapanesefont" font-size="13" lengthAdjust="spacingAndGlyphs" textLength="73" x="178.5" y="76.1719">武器、装身具</text><!--link ラテンアメリカ to アフリカ--><path d="M120.4187,122.5 L120.4187,122.7802 L129.8922,121.9476 L139.3656,122.7577 L148.8391,123.0329 L158.3125,121.5488 L167.786,122.3964 L177.2594,122.5 " fill="none" style="stroke: #383838; stroke-width: 1.0;"/><polygon fill="#383838" points="115.0145,122.5,115.043,122.564,116.7584,123.1738,118.6407,124.1589,120.4686,125.0217,122.1179,125.4827,124.0145,126.5,123.9962,126.4817,123.114,125.5995,122.3241,124.8096,121.5984,124.0839,120.6515,123.137,120.0145,122.5,120.145,122.6305,120.6659,121.5514,121.5679,120.8534,122.5163,120.2018,123.1943,119.2798,124.0145,118.5,124.0237,118.5208,122.2102,119.2903,120.4387,120.1544,118.6469,120.9728,116.8938,121.8784,115.0145,122.5" style="stroke: #383838; stroke-width: 1.0;"/><text fill="#000000" font-family="APJapanesefont" font-size="13" lengthAdjust="spacingAndGlyphs" textLength="26" x="133.25" y="116.6719">奴隷</text><!--link 西ヨーロッパ to ラテンアメリカ--><path d="M122.9996,37.9172 L123.225,38.0837 L116.7107,45.4987 L111.5176,53.8899 L105.8943,61.9632 L98.856,68.9909 L93.693,77.4044 L87.4744,85.0378 L81.6758,92.9816 L76.1694,101.1412 L70.3978,109.105 " fill="none" style="stroke: #383838; stroke-width: 1.0;"/><polygon fill="#383838" points="126.0012,33.855,126.0358,33.9159,124.2199,34.7071,122.6068,35.8555,120.9276,36.8876,119.0314,37.5371,117.4356,38.7162,117.4318,38.6905,118.5333,38.4076,119.6543,38.2538,120.7887,38.1898,121.8767,37.8164,123.0298,37.8763,123.2123,37.9037,122.99,38.9639,123.3005,40.1042,123.6761,41.2541,123.6734,42.3474,123.8697,43.4704,123.8919,43.4754,124.2856,41.545,124.7804,39.6371,125.2264,37.7184,125.7655,35.8203,126.0012,33.855" style="stroke: #383838; stroke-width: 1.0;"/><text fill="#000000" font-family="APJapanesefont" font-size="13" lengthAdjust="spacingAndGlyphs" textLength="13" x="103.5" y="76.1719">銀</text><!--link 西ヨーロッパ to 東ヨーロッパ--><path d="M190.1103,21 L190.1103,21.2802 L199.7846,20.4476 L209.4588,21.2577 L219.1331,21.5329 L228.8073,20.0488 L238.4816,20.8964 L248.1558,20.4313 L257.8301,20.4887 L267.5043,20.9091 L277.1786,20.0782 L286.8528,21 " fill="none" style="stroke: #383838; stroke-width: 1.0;"/><polygon fill="#383838" points="291.9695,21,291.998,21.064,290.1134,20.0738,288.3957,19.4589,286.6236,18.7217,284.6729,17.5827,282.9695,17,282.9512,16.9817,283.669,17.6995,284.4791,18.5096,285.3534,19.3839,286.0065,20.037,286.9695,21,287.1,21.1305,286.0209,21.6514,285.3229,22.5534,284.6713,23.5018,283.7493,24.1798,282.9695,25,282.9787,25.0208,284.7652,24.1903,286.5937,23.4544,288.4019,22.6728,290.2488,21.9784,291.9695,21" style="stroke: #383838; stroke-width: 1.0;"/><polygon fill="#383838" points="185.1043,21,185.1328,21.064,186.8482,21.6738,188.7305,22.6589,190.5584,23.5217,192.2077,23.9827,194.1043,25,194.086,24.9817,193.2038,24.0995,192.4139,23.3096,191.6882,22.5839,190.7413,21.637,190.1043,21,190.2348,21.1305,190.7557,20.0514,191.6577,19.3534,192.6061,18.7018,193.2841,17.7798,194.1043,17,194.1135,17.0208,192.3,17.7903,190.5285,18.6544,188.7367,19.4728,186.9836,20.3784,185.1043,21" style="stroke: #383838; stroke-width: 1.0;"/><text fill="#000000" font-family="APJapanesefont" font-size="13" lengthAdjust="spacingAndGlyphs" textLength="70" x="203.5" y="15.1719">バルト海貿易</text><!--
@startuml
skinparam handwritten true
skinparam monochrome true
skinparam defaultFontName APJapanesefont

(西ヨーロッパ) -down-> (アフリカ) : 武器、装身具
(アフリカ) -left-> (ラテンアメリカ)  : 奴隷
(ラテンアメリカ) -up-> (西ヨーロッパ) : 銀
(東ヨーロッパ) <-left-> (西ヨーロッパ) : バルト海貿易

@enduml

PlantUML version 1.2018.12(Sun Oct 21 19:15:15 JST 2018)
(GPL source distribution)
Java Runtime: Java(TM) SE Runtime Environment
JVM: Java HotSpot(TM) 64-Bit Server VM
Java Version: 1.8.0_191-b12
Operating System: Mac OS X
OS Version: 10.10.5
Default Encoding: UTF-8
Language: ja
Country: JP
--></g></svg>